<mxfile host="app.diagrams.net" agent="Mozilla/5.0 (Windows NT 10.0; Win64; x64) AppleWebKit/537.36 (KHTML, like Gecko) Chrome/136.0.0.0 Safari/537.36 Edg/136.0.0.0" version="27.0.4">
  <diagram id="NyxJz7NLN-YGKa4Js0qJ" name="Page-1">
    <mxGraphModel dx="2745" dy="1120" grid="1" gridSize="10" guides="1" tooltips="1" connect="1" arrows="1" fold="1" page="1" pageScale="1" pageWidth="850" pageHeight="1100" math="0" shadow="0">
      <root>
        <mxCell id="0" />
        <mxCell id="1" parent="0" />
        <mxCell id="PTkvT1fvdtZCM3fCPKat-1" value="" style="edgeStyle=orthogonalEdgeStyle;rounded=0;orthogonalLoop=1;jettySize=auto;html=1;fontSize=13;" parent="1" source="PTkvT1fvdtZCM3fCPKat-2" target="PTkvT1fvdtZCM3fCPKat-9" edge="1">
          <mxGeometry relative="1" as="geometry" />
        </mxCell>
        <mxCell id="PTkvT1fvdtZCM3fCPKat-2" value="Start" style="ellipse;whiteSpace=wrap;html=1;fontSize=13;" parent="1" vertex="1">
          <mxGeometry x="340" y="191" width="120" height="57" as="geometry" />
        </mxCell>
        <mxCell id="PTkvT1fvdtZCM3fCPKat-3" value="" style="edgeStyle=orthogonalEdgeStyle;rounded=0;orthogonalLoop=1;jettySize=auto;html=1;fontSize=13;" parent="1" source="PTkvT1fvdtZCM3fCPKat-4" target="PTkvT1fvdtZCM3fCPKat-16" edge="1">
          <mxGeometry relative="1" as="geometry" />
        </mxCell>
        <mxCell id="PTkvT1fvdtZCM3fCPKat-4" value="Display Seat availability" style="shape=parallelogram;perimeter=parallelogramPerimeter;whiteSpace=wrap;html=1;fixedSize=1;fontSize=13;" parent="1" vertex="1">
          <mxGeometry x="150" y="428" width="120" height="37" as="geometry" />
        </mxCell>
        <mxCell id="PTkvT1fvdtZCM3fCPKat-48" style="edgeStyle=orthogonalEdgeStyle;rounded=0;orthogonalLoop=1;jettySize=auto;html=1;entryX=1;entryY=0.27;entryDx=0;entryDy=0;fontSize=13;entryPerimeter=0;" parent="1" source="PTkvT1fvdtZCM3fCPKat-6" target="PTkvT1fvdtZCM3fCPKat-30" edge="1">
          <mxGeometry relative="1" as="geometry">
            <Array as="points">
              <mxPoint x="231" y="860" />
            </Array>
          </mxGeometry>
        </mxCell>
        <mxCell id="PTkvT1fvdtZCM3fCPKat-6" value="Show Booking Summary" style="shape=parallelogram;perimeter=parallelogramPerimeter;whiteSpace=wrap;html=1;fixedSize=1;fontSize=13;" parent="1" vertex="1">
          <mxGeometry x="170" y="790" width="120" height="37" as="geometry" />
        </mxCell>
        <mxCell id="PTkvT1fvdtZCM3fCPKat-7" value="End" style="ellipse;whiteSpace=wrap;html=1;fontSize=13;" parent="1" vertex="1">
          <mxGeometry x="-60" y="1210" width="120" height="47" as="geometry" />
        </mxCell>
        <mxCell id="PTkvT1fvdtZCM3fCPKat-8" value="" style="edgeStyle=orthogonalEdgeStyle;rounded=0;orthogonalLoop=1;jettySize=auto;html=1;fontSize=13;" parent="1" source="PTkvT1fvdtZCM3fCPKat-9" target="PTkvT1fvdtZCM3fCPKat-11" edge="1">
          <mxGeometry relative="1" as="geometry" />
        </mxCell>
        <mxCell id="PTkvT1fvdtZCM3fCPKat-9" value="Fetch User Location" style="rounded=0;whiteSpace=wrap;html=1;fontSize=13;" parent="1" vertex="1">
          <mxGeometry x="325" y="271" width="150" height="37" as="geometry" />
        </mxCell>
        <mxCell id="PTkvT1fvdtZCM3fCPKat-10" value="" style="edgeStyle=orthogonalEdgeStyle;rounded=0;orthogonalLoop=1;jettySize=auto;html=1;fontSize=13;" parent="1" source="PTkvT1fvdtZCM3fCPKat-11" target="PTkvT1fvdtZCM3fCPKat-14" edge="1">
          <mxGeometry relative="1" as="geometry" />
        </mxCell>
        <mxCell id="PTkvT1fvdtZCM3fCPKat-11" value="Fetch Nearby Restaurants" style="rounded=0;whiteSpace=wrap;html=1;fontSize=13;" parent="1" vertex="1">
          <mxGeometry x="340" y="341" width="120" height="37" as="geometry" />
        </mxCell>
        <mxCell id="PTkvT1fvdtZCM3fCPKat-12" style="edgeStyle=orthogonalEdgeStyle;rounded=0;orthogonalLoop=1;jettySize=auto;html=1;entryX=1;entryY=0.5;entryDx=0;entryDy=0;fontSize=13;exitX=1;exitY=0.5;exitDx=0;exitDy=0;" parent="1" source="PTkvT1fvdtZCM3fCPKat-14" target="PTkvT1fvdtZCM3fCPKat-11" edge="1">
          <mxGeometry relative="1" as="geometry">
            <Array as="points">
              <mxPoint x="650" y="437" />
              <mxPoint x="650" y="360" />
            </Array>
          </mxGeometry>
        </mxCell>
        <mxCell id="PTkvT1fvdtZCM3fCPKat-13" value="" style="edgeStyle=orthogonalEdgeStyle;rounded=0;orthogonalLoop=1;jettySize=auto;html=1;fontSize=13;" parent="1" source="PTkvT1fvdtZCM3fCPKat-14" target="PTkvT1fvdtZCM3fCPKat-4" edge="1">
          <mxGeometry relative="1" as="geometry">
            <Array as="points">
              <mxPoint x="210" y="450" />
            </Array>
          </mxGeometry>
        </mxCell>
        <mxCell id="PTkvT1fvdtZCM3fCPKat-14" value="Restaurants Fetched Successfully?" style="rhombus;whiteSpace=wrap;html=1;fontSize=13;" parent="1" vertex="1">
          <mxGeometry x="305" y="408" width="190" height="57" as="geometry" />
        </mxCell>
        <mxCell id="PTkvT1fvdtZCM3fCPKat-15" value="" style="edgeStyle=orthogonalEdgeStyle;rounded=0;orthogonalLoop=1;jettySize=auto;html=1;fontSize=13;" parent="1" source="PTkvT1fvdtZCM3fCPKat-16" target="PTkvT1fvdtZCM3fCPKat-19" edge="1">
          <mxGeometry relative="1" as="geometry" />
        </mxCell>
        <mxCell id="PTkvT1fvdtZCM3fCPKat-16" value="Select Time Slot" style="rounded=0;whiteSpace=wrap;html=1;fontSize=13;" parent="1" vertex="1">
          <mxGeometry x="151" y="500" width="120" height="37" as="geometry" />
        </mxCell>
        <mxCell id="PTkvT1fvdtZCM3fCPKat-17" value="" style="edgeStyle=orthogonalEdgeStyle;rounded=0;orthogonalLoop=1;jettySize=auto;html=1;fontSize=13;" parent="1" source="PTkvT1fvdtZCM3fCPKat-19" target="PTkvT1fvdtZCM3fCPKat-21" edge="1">
          <mxGeometry relative="1" as="geometry" />
        </mxCell>
        <mxCell id="PTkvT1fvdtZCM3fCPKat-18" value="" style="edgeStyle=orthogonalEdgeStyle;rounded=0;orthogonalLoop=1;jettySize=auto;html=1;fontSize=13;exitX=0;exitY=0.5;exitDx=0;exitDy=0;" parent="1" edge="1">
          <mxGeometry relative="1" as="geometry">
            <mxPoint x="105" y="594.5" as="sourcePoint" />
            <mxPoint y="636" as="targetPoint" />
            <Array as="points">
              <mxPoint x="105" y="597" />
              <mxPoint y="597" />
            </Array>
          </mxGeometry>
        </mxCell>
        <mxCell id="PTkvT1fvdtZCM3fCPKat-19" value="Slot marked as Non-Peak?" style="rhombus;whiteSpace=wrap;html=1;fontSize=13;" parent="1" vertex="1">
          <mxGeometry x="105" y="569" width="210" height="57" as="geometry" />
        </mxCell>
        <mxCell id="PTkvT1fvdtZCM3fCPKat-46" style="edgeStyle=orthogonalEdgeStyle;rounded=0;orthogonalLoop=1;jettySize=auto;html=1;entryX=1;entryY=0.75;entryDx=0;entryDy=0;fontSize=13;" parent="1" source="PTkvT1fvdtZCM3fCPKat-21" target="PTkvT1fvdtZCM3fCPKat-23" edge="1">
          <mxGeometry relative="1" as="geometry">
            <Array as="points">
              <mxPoint x="440" y="667" />
            </Array>
          </mxGeometry>
        </mxCell>
        <mxCell id="PTkvT1fvdtZCM3fCPKat-21" value="Apply discounts" style="rounded=0;whiteSpace=wrap;html=1;fontSize=13;" parent="1" vertex="1">
          <mxGeometry x="385" y="579" width="120" height="37" as="geometry" />
        </mxCell>
        <mxCell id="PTkvT1fvdtZCM3fCPKat-22" value="" style="edgeStyle=orthogonalEdgeStyle;rounded=0;orthogonalLoop=1;jettySize=auto;html=1;fontSize=13;" parent="1" source="PTkvT1fvdtZCM3fCPKat-23" target="PTkvT1fvdtZCM3fCPKat-28" edge="1">
          <mxGeometry relative="1" as="geometry" />
        </mxCell>
        <mxCell id="PTkvT1fvdtZCM3fCPKat-23" value="Select Available Seats" style="rounded=0;whiteSpace=wrap;html=1;fontSize=13;" parent="1" vertex="1">
          <mxGeometry x="-60" y="639" width="120" height="37" as="geometry" />
        </mxCell>
        <mxCell id="PTkvT1fvdtZCM3fCPKat-24" style="edgeStyle=orthogonalEdgeStyle;rounded=0;orthogonalLoop=1;jettySize=auto;html=1;exitX=0.5;exitY=1;exitDx=0;exitDy=0;entryX=0.5;entryY=0;entryDx=0;entryDy=0;fontSize=13;" parent="1" source="PTkvT1fvdtZCM3fCPKat-25" target="PTkvT1fvdtZCM3fCPKat-6" edge="1">
          <mxGeometry relative="1" as="geometry" />
        </mxCell>
        <mxCell id="PTkvT1fvdtZCM3fCPKat-25" value="Enable Food Selection" style="rounded=0;whiteSpace=wrap;html=1;fontSize=13;" parent="1" vertex="1">
          <mxGeometry x="170" y="720" width="120" height="37" as="geometry" />
        </mxCell>
        <mxCell id="PTkvT1fvdtZCM3fCPKat-27" value="" style="edgeStyle=orthogonalEdgeStyle;rounded=0;orthogonalLoop=1;jettySize=auto;html=1;fontSize=13;" parent="1" source="PTkvT1fvdtZCM3fCPKat-28" target="PTkvT1fvdtZCM3fCPKat-25" edge="1">
          <mxGeometry relative="1" as="geometry" />
        </mxCell>
        <mxCell id="PTkvT1fvdtZCM3fCPKat-47" style="edgeStyle=orthogonalEdgeStyle;rounded=0;orthogonalLoop=1;jettySize=auto;html=1;fontSize=13;" parent="1" source="PTkvT1fvdtZCM3fCPKat-28" edge="1">
          <mxGeometry relative="1" as="geometry">
            <mxPoint x="1" y="961" as="targetPoint" />
          </mxGeometry>
        </mxCell>
        <mxCell id="PTkvT1fvdtZCM3fCPKat-28" value="Pre-order Food?" style="rhombus;whiteSpace=wrap;html=1;fontSize=13;" parent="1" vertex="1">
          <mxGeometry x="-95" y="710" width="190" height="57" as="geometry" />
        </mxCell>
        <mxCell id="PTkvT1fvdtZCM3fCPKat-29" value="" style="edgeStyle=orthogonalEdgeStyle;rounded=0;orthogonalLoop=1;jettySize=auto;html=1;fontSize=13;" parent="1" source="PTkvT1fvdtZCM3fCPKat-30" target="PTkvT1fvdtZCM3fCPKat-32" edge="1">
          <mxGeometry relative="1" as="geometry" />
        </mxCell>
        <mxCell id="PTkvT1fvdtZCM3fCPKat-30" value="Save Bookings and food order" style="rounded=0;whiteSpace=wrap;html=1;fontSize=13;" parent="1" vertex="1">
          <mxGeometry x="-97" y="850" width="200" height="37" as="geometry" />
        </mxCell>
        <mxCell id="PTkvT1fvdtZCM3fCPKat-31" value="" style="edgeStyle=orthogonalEdgeStyle;rounded=0;orthogonalLoop=1;jettySize=auto;html=1;fontSize=13;" parent="1" source="PTkvT1fvdtZCM3fCPKat-32" target="PTkvT1fvdtZCM3fCPKat-34" edge="1">
          <mxGeometry relative="1" as="geometry" />
        </mxCell>
        <mxCell id="PTkvT1fvdtZCM3fCPKat-32" value="Send Confirmation mail" style="rounded=0;whiteSpace=wrap;html=1;fontSize=13;" parent="1" vertex="1">
          <mxGeometry x="-84" y="920" width="170" height="37" as="geometry" />
        </mxCell>
        <mxCell id="PTkvT1fvdtZCM3fCPKat-33" value="" style="edgeStyle=orthogonalEdgeStyle;rounded=0;orthogonalLoop=1;jettySize=auto;html=1;fontSize=13;" parent="1" source="PTkvT1fvdtZCM3fCPKat-34" target="PTkvT1fvdtZCM3fCPKat-36" edge="1">
          <mxGeometry relative="1" as="geometry" />
        </mxCell>
        <mxCell id="PTkvT1fvdtZCM3fCPKat-34" value="Store food order in database" style="rounded=0;whiteSpace=wrap;html=1;fontSize=13;" parent="1" vertex="1">
          <mxGeometry x="-75" y="1000" width="150" height="37" as="geometry" />
        </mxCell>
        <mxCell id="PTkvT1fvdtZCM3fCPKat-35" value="" style="edgeStyle=orthogonalEdgeStyle;rounded=0;orthogonalLoop=1;jettySize=auto;html=1;fontSize=13;" parent="1" source="PTkvT1fvdtZCM3fCPKat-36" target="PTkvT1fvdtZCM3fCPKat-38" edge="1">
          <mxGeometry relative="1" as="geometry" />
        </mxCell>
        <mxCell id="PTkvT1fvdtZCM3fCPKat-36" value="Update" style="rounded=0;whiteSpace=wrap;html=1;fontSize=13;" parent="1" vertex="1">
          <mxGeometry x="-60" y="1070" width="120" height="37" as="geometry" />
        </mxCell>
        <mxCell id="PTkvT1fvdtZCM3fCPKat-38" value="Redirect to profile/Dashboard" style="rounded=0;whiteSpace=wrap;html=1;fontSize=13;" parent="1" vertex="1">
          <mxGeometry x="-75" y="1130" width="150" height="37" as="geometry" />
        </mxCell>
        <mxCell id="PTkvT1fvdtZCM3fCPKat-39" value="" style="edgeStyle=orthogonalEdgeStyle;rounded=0;orthogonalLoop=1;jettySize=auto;html=1;fontSize=13;" parent="1" target="PTkvT1fvdtZCM3fCPKat-7" edge="1">
          <mxGeometry relative="1" as="geometry">
            <mxPoint x="-1" y="1167" as="sourcePoint" />
          </mxGeometry>
        </mxCell>
        <mxCell id="PTkvT1fvdtZCM3fCPKat-49" value="No" style="text;html=1;align=center;verticalAlign=middle;resizable=0;points=[];autosize=1;strokeColor=none;fillColor=none;" parent="1" vertex="1">
          <mxGeometry x="490" y="408" width="40" height="30" as="geometry" />
        </mxCell>
        <mxCell id="PTkvT1fvdtZCM3fCPKat-50" value="Yes" style="text;html=1;align=center;verticalAlign=middle;resizable=0;points=[];autosize=1;strokeColor=none;fillColor=none;" parent="1" vertex="1">
          <mxGeometry x="275" y="408" width="40" height="30" as="geometry" />
        </mxCell>
        <mxCell id="PTkvT1fvdtZCM3fCPKat-52" value="Yes" style="text;html=1;align=center;verticalAlign=middle;resizable=0;points=[];autosize=1;strokeColor=none;fillColor=none;" parent="1" vertex="1">
          <mxGeometry x="305" y="570" width="40" height="30" as="geometry" />
        </mxCell>
        <mxCell id="PTkvT1fvdtZCM3fCPKat-53" value="No" style="text;html=1;align=center;verticalAlign=middle;resizable=0;points=[];autosize=1;strokeColor=none;fillColor=none;" parent="1" vertex="1">
          <mxGeometry x="55" y="569" width="40" height="30" as="geometry" />
        </mxCell>
        <mxCell id="PTkvT1fvdtZCM3fCPKat-54" value="Yes" style="text;html=1;align=center;verticalAlign=middle;resizable=0;points=[];autosize=1;strokeColor=none;fillColor=none;" parent="1" vertex="1">
          <mxGeometry x="95" y="710" width="40" height="30" as="geometry" />
        </mxCell>
        <mxCell id="PTkvT1fvdtZCM3fCPKat-55" value="No" style="text;html=1;align=center;verticalAlign=middle;resizable=0;points=[];autosize=1;strokeColor=none;fillColor=none;" parent="1" vertex="1">
          <mxGeometry y="767" width="40" height="30" as="geometry" />
        </mxCell>
      </root>
    </mxGraphModel>
  </diagram>
</mxfile>
